<svg width="1440" height="1024" viewBox="0 0 1440 1024" fill="none" xmlns="http://www.w3.org/2000/svg">
<path d="M270.778 738.741C337.106 794.183 486.745 710.289 514.571 792.092C541.291 870.646 404.889 903.776 347.225 963.481C309.312 1002.74 285.209 1048.99 238.759 1077.67C157.996 1127.52 71.9671 1228.27 -12.9252 1185.8C-96.3576 1144.07 -90.3252 1014.08 -70.4303 923.012C-55.9491 856.724 51.2658 854.233 73.5132 790.128C113.097 676.067 -20.5986 472.955 96.3317 442.495C211.693 412.443 179.343 662.312 270.778 738.741Z" fill="#A83ADC"/>
<path d="M973.589 752.01C996.505 758.663 1016.39 771.304 1037.92 781.598C1064.37 794.247 1112.47 790.958 1115.96 820.082C1120.3 856.388 1041.41 873.846 1053.09 908.495C1070.65 960.603 1167.02 957.359 1180.2 1010.74C1189.05 1046.56 1121.95 1054.36 1095.46 1080.04C1069.44 1105.26 1059.37 1149.88 1024.97 1161.24C990.193 1172.72 954.729 1145.15 918.74 1138.38C887.084 1132.43 840.12 1151.61 824.328 1123.53C802.427 1084.58 866.912 1023.84 836.12 991.474C801.633 955.223 724.471 1014.69 688.1 980.331C662.785 956.418 703.358 912.536 720.409 882.169C734.86 856.434 767.564 844.536 779.506 817.545C794.354 783.985 765.285 729.143 796.585 709.998C828.43 690.519 866.215 733.67 902.534 742.291C926.051 747.872 950.377 745.27 973.589 752.01Z" fill="#C680E7"/>
<path d="M533.088 -140.286C555.252 -142.858 575.145 -126.188 593.888 -114.085C611.505 -102.708 630.447 -90.6063 639.389 -71.6412C648.164 -53.0296 626.687 -23.6731 642.645 -10.6772C688.683 26.8155 771.872 11.3949 803.24 61.7966C823.52 94.3834 786.493 149.165 750.599 162.785C703.766 180.557 647.478 112.203 604.155 137.342C564.774 160.194 608.707 244.754 569.486 267.88C538.505 286.148 514.343 218.552 479.168 211.04C442.095 203.122 404.407 233.49 367.519 224.747C327.802 215.333 264.466 201.075 265.003 160.277C265.737 104.567 351.377 85.0829 370.051 32.5876C379.712 5.42839 340.472 -18.2369 338.739 -47.0097C336.799 -79.1916 329.536 -128.764 359.629 -140.367C398.82 -155.477 435.746 -100.626 477.751 -100.607C500.703 -100.596 510.289 -137.64 533.088 -140.286Z" fill="#474747"/>
<path d="M1507.55 146.5C1587.16 141.117 1701.01 99.2516 1740 168.883C1782.04 243.968 1658.58 319.127 1652.26 404.95C1647.35 471.573 1758.02 546.91 1708.82 592.091C1652.9 643.448 1570.07 567.422 1507.55 610.5C1409.38 678.144 1395.75 843.552 1279.5 870C1188.83 890.628 1235.83 744.161 1230 651.343C1225.18 574.526 1342.36 491.804 1337.32 415C1332.21 337.081 1141.84 316.142 1160.32 240.272C1176.07 175.586 1285.6 212.62 1349.86 195.265C1404.31 180.561 1451.28 150.305 1507.55 146.5Z" fill="#EBA900"/>
</svg>
