<svg width="501" height="319" viewBox="0 0 501 319" fill="none" xmlns="http://www.w3.org/2000/svg">
<path d="M293.589 47.0095C316.505 53.663 336.389 66.3037 357.918 76.5978C384.374 89.2473 432.473 85.9584 435.955 115.082C440.296 151.388 361.415 168.846 373.091 203.495C390.649 255.603 487.018 252.359 500.202 305.742C509.05 341.564 441.946 349.355 415.457 375.035C389.439 400.259 379.374 444.877 344.967 456.236C310.193 467.717 274.729 440.145 238.74 433.381C207.084 427.431 160.12 446.607 144.328 418.526C122.427 379.584 186.912 318.841 156.12 286.474C121.633 250.223 44.471 309.689 8.09962 275.331C-17.2148 251.418 23.3582 207.536 40.4095 177.169C54.8601 151.434 87.5638 139.536 99.5059 112.545C114.354 78.9852 85.2848 24.1434 116.585 4.99781C148.43 -14.4814 186.215 28.6704 222.534 37.2907C246.051 42.8723 270.377 40.2704 293.589 47.0095Z" fill="#C680E7"/>
</svg>
