<svg width="281" height="743" viewBox="0 0 281 743" fill="none" xmlns="http://www.w3.org/2000/svg">
<path d="M348.553 17.5C428.165 12.1165 542.013 -29.7484 581 39.8835C623.04 114.968 499.584 190.127 493.262 275.95C488.354 342.573 599.022 417.91 549.824 463.091C493.901 514.448 411.075 438.422 348.553 481.5C250.377 549.144 236.748 714.552 120.5 741C29.8316 761.628 76.8269 615.161 71.0003 522.343C66.178 445.526 183.356 362.804 178.318 286C173.208 208.081 -17.1556 187.142 1.31796 111.272C17.0686 46.5858 126.596 83.6204 190.861 66.2654C245.31 51.5611 292.282 21.3051 348.553 17.5Z" fill="#EBA900"/>
</svg>
