<svg width="544" height="271" viewBox="0 0 544 271" fill="none" xmlns="http://www.w3.org/2000/svg">
<path d="M268.088 -140.286C290.252 -142.858 310.145 -126.188 328.888 -114.085C346.505 -102.708 365.447 -90.6063 374.389 -71.6412C383.164 -53.0296 361.687 -23.6731 377.645 -10.6772C423.683 26.8155 506.872 11.3949 538.24 61.7966C558.52 94.3834 521.493 149.165 485.599 162.785C438.766 180.557 382.478 112.203 339.155 137.342C299.774 160.194 343.707 244.754 304.486 267.88C273.505 286.148 249.343 218.552 214.168 211.04C177.095 203.122 139.407 233.49 102.519 224.747C62.8024 215.333 -0.534048 201.075 0.00339817 160.277C0.73729 104.567 86.3774 85.0829 105.051 32.5876C114.712 5.42839 75.4723 -18.2369 73.7385 -47.0097C71.7993 -79.1916 64.5364 -128.764 94.6291 -140.367C133.82 -155.477 170.746 -100.626 212.751 -100.607C235.703 -100.596 245.289 -137.64 268.088 -140.286Z" fill="#474747"/>
</svg>
